<svg xmlns="http://www.w3.org/2000/svg" viewBox="0 0 131.99 39.9"><defs><style>.cls-1{fill:#3de2a3;}</style></defs><g id="Layer_2" data-name="Layer 2"><g id="Layer_1-2" data-name="Layer 1"><path class="cls-1" d="M16.67,24.53l.61,0c.48,0,.91,0,1.28,0h.65l1.92,0,.94,0,1.09,0a6.92,6.92,0,0,0,2.3-.36,5.43,5.43,0,0,0,2.88-2.12,6.14,6.14,0,0,0,.8-1.77,7.16,7.16,0,0,0,.3-2.05,7.15,7.15,0,0,0-.8-3.48A5.12,5.12,0,0,0,26,12.39a9.26,9.26,0,0,0-3.26-.47l-.86,0c-1.08.05-2.05.08-2.91.08l-1.1,0h-.59a2.35,2.35,0,0,0-1.19.26.75.75,0,0,0-.43.69.82.82,0,0,0,.62.79.87.87,0,0,1,.56.41,2.89,2.89,0,0,1,.12,1c0,1.28,0,2.58-.06,3.88s-.09,2.18-.14,2.64a2.25,2.25,0,0,1-.2.77.75.75,0,0,1-.49.3,1.33,1.33,0,0,0-.54.28.71.71,0,0,0-.17.5.88.88,0,0,0,.37.73A1.7,1.7,0,0,0,16.67,24.53Zm4.43-9.85a.81.81,0,0,1,.18-.58.84.84,0,0,1,.61-.18,2.37,2.37,0,0,1,2.28,1.35,7.56,7.56,0,0,1,.63,3.42q0,4-2.64,4a.89.89,0,0,1-1.06-1Z"/><path class="cls-1" d="M34.91,24.68a5.37,5.37,0,0,0,3.31-1.07A1.65,1.65,0,0,0,39,22.36a.94.94,0,0,0-.22-.6.62.62,0,0,0-.46-.29,1,1,0,0,0-.49.22,3.4,3.4,0,0,1-.88.42,3.12,3.12,0,0,1-1,.16,2.12,2.12,0,0,1-1.36-.51,1.46,1.46,0,0,1-.64-1.1c0-.18.1-.26.28-.26h4.23a.72.72,0,0,0,.61-.37,1.72,1.72,0,0,0,.26-1A2.92,2.92,0,0,0,39,17.6a3.74,3.74,0,0,0-1-1.16,4.43,4.43,0,0,0-2.91-1,5,5,0,0,0-2,.39,4.91,4.91,0,0,0-2,1.56,4.34,4.34,0,0,0-.91,2.71,4.61,4.61,0,0,0,1.57,3.45A4.73,4.73,0,0,0,34.91,24.68Zm-.69-7.19a.58.58,0,0,1,.1-.12,1,1,0,0,1,1.42,0,1.17,1.17,0,0,1,.28.8c0,.35-.2.53-.58.53h-.91a.76.76,0,0,1-.44-.11.45.45,0,0,1-.13-.38A1.17,1.17,0,0,1,34.22,17.49Z"/><path class="cls-1" d="M41,24.31a1,1,0,0,0,.67.22l.37,0a1.27,1.27,0,0,1,.28,0l1,.1c.42.06.85.1,1.28.12a3.65,3.65,0,0,0,2.3-.73A2.52,2.52,0,0,0,48,21.86a2.25,2.25,0,0,0-.68-1.68A7.94,7.94,0,0,0,45,18.69c-.57-.25-.85-.53-.85-.83a.64.64,0,0,1,.62-.62,1.63,1.63,0,0,1,1,.56,5.6,5.6,0,0,0,.79.67,1,1,0,0,0,.57.16.92.92,0,0,0,.63-.24.75.75,0,0,0,.25-.6,2.18,2.18,0,0,0-.21-.87,3.66,3.66,0,0,0-.56-.93,1.15,1.15,0,0,0-.84-.53.85.85,0,0,0-.35.08,2.07,2.07,0,0,1-.59.16,1.39,1.39,0,0,1-.35,0,9,9,0,0,0-1.47-.19,3.11,3.11,0,0,0-2.54,1.11,2.8,2.8,0,0,0,0,3.59,6.51,6.51,0,0,0,2.1,1.46c.46.23.69.47.69.74a.51.51,0,0,1-.18.42.68.68,0,0,1-.48.16,1,1,0,0,1-.51-.15,3.47,3.47,0,0,1-.61-.54,9.35,9.35,0,0,0-.89-.89.71.71,0,0,0-.46-.17c-.43,0-.65.28-.65.83a3.24,3.24,0,0,0,.31,1.23A3.19,3.19,0,0,0,41,24.31Z"/><path class="cls-1" d="M49.31,14.7a1.92,1.92,0,0,0,1,.25A5.21,5.21,0,0,0,53,14.32a1.26,1.26,0,0,0,.7-1.1.91.91,0,0,0-.46-.77,2.27,2.27,0,0,0-1.25-.3,5.54,5.54,0,0,0-2.09.43c-.74.29-1.11.7-1.11,1.22A1,1,0,0,0,49.31,14.7Z"/><polygon class="cls-1" points="52 12.14 52 12.15 52.01 12.14 52 12.14"/><path class="cls-1" d="M49.18,18a.74.74,0,0,1,.51.57c0,.09,0,.41.05.95s0,.91,0,1.11a6.57,6.57,0,0,1-.12,1.4,1.14,1.14,0,0,1-.4.67,3.52,3.52,0,0,0-.51.43.76.76,0,0,0,.1.89,1,1,0,0,0,.51.32,10.05,10.05,0,0,0,2.51.26q2.94,0,2.94-1.17a.54.54,0,0,0-.09-.35,1.24,1.24,0,0,0-.38-.34,1.29,1.29,0,0,1-.45-.53,2.56,2.56,0,0,1-.11-.91V16.09c0-.37-.17-.57-.49-.55a8.89,8.89,0,0,0-1.79.27,15.86,15.86,0,0,0-2.16.66c-.49.19-.73.47-.73.85A.76.76,0,0,0,49.18,18Z"/><path class="cls-1" d="M55.93,24.59a1.2,1.2,0,0,0-.49.43,1.15,1.15,0,0,0-.19.65,1.57,1.57,0,0,0,.34,1,2.64,2.64,0,0,0,.92.77,7.34,7.34,0,0,0,3.24.61,9.12,9.12,0,0,0,2.79-.38,4.57,4.57,0,0,0,2.33-1.49,2.82,2.82,0,0,0,.67-1.77,2.12,2.12,0,0,0-.27-1,2,2,0,0,0-.74-.77,3.26,3.26,0,0,0-1.65-.35,15.93,15.93,0,0,0-2.18.21,9.28,9.28,0,0,1-1.06.09,1.63,1.63,0,0,1-.84-.17.54.54,0,0,1-.31-.48.24.24,0,0,1,0-.12.42.42,0,0,1,.47-.36,2.23,2.23,0,0,1,.37,0,5.49,5.49,0,0,0,.58,0,6.67,6.67,0,0,0,2.25-.36,4.29,4.29,0,0,0,1.67-1,2.52,2.52,0,0,0,.69-2.14,1.49,1.49,0,0,1,0-.21c0-.08.07-.17.21-.29a2.39,2.39,0,0,0,.55-.75,1.92,1.92,0,0,0,.23-.84,1,1,0,0,0-.17-.6.45.45,0,0,0-.39-.25.71.71,0,0,0-.34.16,3.11,3.11,0,0,1-2,.77,7.15,7.15,0,0,1-1.13-.16A7.46,7.46,0,0,0,60,15.58a5.82,5.82,0,0,0-3.22.94,3.06,3.06,0,0,0-.91.95,2.25,2.25,0,0,0-.33,1.15,2.62,2.62,0,0,0,.93,2c.18.17.27.31.27.38s-.07.14-.22.22a2.27,2.27,0,0,0-.86.71,1.46,1.46,0,0,0-.33.87A1.71,1.71,0,0,0,56,24.07c.14.13.22.21.22.29S56.11,24.52,55.93,24.59Zm3.38-7.4a.92.92,0,0,1,.73-.35h0a1,1,0,0,1,.83.56,3.23,3.23,0,0,1,.3,1.5,1.58,1.58,0,0,1-.28,1,.93.93,0,0,1-.77.37.9.9,0,0,1-.79-.59A3.61,3.61,0,0,1,59,18.09,1.39,1.39,0,0,1,59.31,17.19ZM58.07,25h.14a3,3,0,0,0,.51.07,8.65,8.65,0,0,0,.88.05,8.47,8.47,0,0,0,1.13-.08l.41,0a.72.72,0,0,1,.47.16.47.47,0,0,1,.19.38.72.72,0,0,1-.5.66,3.43,3.43,0,0,1-1.38.23,3,3,0,0,1-1.5-.33,1,1,0,0,1-.57-.86C57.85,25.13,57.92,25,58.07,25Z"/><path class="cls-1" d="M66.24,18a1.47,1.47,0,0,1,.55.47,2.28,2.28,0,0,1,.09.82c0,.75,0,1.47-.06,2.15a6.61,6.61,0,0,1-.12,1.09.68.68,0,0,1-.3.39,2,2,0,0,0-.36.35.72.72,0,0,0-.08.32c0,.69.84,1,2.51,1a7.46,7.46,0,0,0,2.3-.26c.49-.16.74-.42.74-.78a.61.61,0,0,0-.1-.37,4.51,4.51,0,0,1-.44-.77,2.55,2.55,0,0,1-.07-.73V20a3,3,0,0,1,.22-1.4,1,1,0,0,1,.24-.22,1,1,0,0,1,1.45.31,4.24,4.24,0,0,1,.29,1.83A4.91,4.91,0,0,1,72.74,23a4.59,4.59,0,0,0-.36.41.47.47,0,0,0,0,.26.76.76,0,0,0,.53.73,5,5,0,0,0,1.75.22,9,9,0,0,0,2.54-.24.85.85,0,0,0,.71-.83.5.5,0,0,0-.13-.4,3.86,3.86,0,0,1-.55-.66,1.24,1.24,0,0,1-.12-.53l-.12-3.17a5.64,5.64,0,0,0-.29-1.68,2.16,2.16,0,0,0-.79-1,3.22,3.22,0,0,0-1.94-.59,2.57,2.57,0,0,0-2.24,1.13c-.16.23-.31.34-.46.34s-.36-.14-.36-.43v-.35a.65.65,0,0,0-.64-.67,5.21,5.21,0,0,0-1.1.21c-.53.14-1.08.31-1.66.51a6,6,0,0,0-1.28.59.7.7,0,0,0-.26.28A.68.68,0,0,0,66.24,18Z"/><path class="cls-1" d="M83.08,24.69a5.31,5.31,0,0,0,3.3-1.08,1.64,1.64,0,0,0,.81-1.25.94.94,0,0,0-.22-.59.62.62,0,0,0-.46-.29,1,1,0,0,0-.49.22,3,3,0,0,1-.87.41,3.12,3.12,0,0,1-1,.16,2.12,2.12,0,0,1-1.36-.51,1.46,1.46,0,0,1-.64-1.1c0-.18.1-.26.28-.26h4.24a.71.71,0,0,0,.63-.36,1.7,1.7,0,0,0,.24-1,3,3,0,0,0-.42-1.48,3.91,3.91,0,0,0-1-1.16,4.48,4.48,0,0,0-2.9-1,5,5,0,0,0-2,.39,4.85,4.85,0,0,0-2,1.56,4.35,4.35,0,0,0-.92,2.71,4.67,4.67,0,0,0,1.56,3.46A4.75,4.75,0,0,0,83.08,24.69Zm-.68-7.2a.93.93,0,0,1,.79-.4,1,1,0,0,1,.73.3,1.12,1.12,0,0,1,.27.8c0,.35-.19.53-.57.53h-.91a.79.79,0,0,1-.45-.11.48.48,0,0,1-.13-.38A1.24,1.24,0,0,1,82.4,17.49Z"/><path class="cls-1" d="M88.9,22.32a1.79,1.79,0,0,1-.36.31,1,1,0,0,0-.54.83.91.91,0,0,0,.73.88,8.29,8.29,0,0,0,2.43.28,13.35,13.35,0,0,0,2.53-.18,1.36,1.36,0,0,0,.71-.37.9.9,0,0,0,.26-.64c0-.4-.27-.68-.81-.85a1.38,1.38,0,0,1-.48-.21.71.71,0,0,1-.18-.37,11.6,11.6,0,0,1-.1-1.86A5.26,5.26,0,0,1,93.17,19a.33.33,0,0,1,.33-.29.61.61,0,0,1,.35.19,4,4,0,0,0,.81.67,1.72,1.72,0,0,0,.77.16,2,2,0,0,0,1.42-.55,2.29,2.29,0,0,0,.51-.73,2.17,2.17,0,0,0,.2-.87,2.14,2.14,0,0,0-.16-.79,2.11,2.11,0,0,0-.42-.67,1.77,1.77,0,0,0-1.34-.53,2.15,2.15,0,0,0-1.88,1.12c-.11.17-.19.26-.34.26s-.25-.14-.28-.4a2.34,2.34,0,0,0-.19-.86c-.07-.09-.26-.14-.58-.14a9.59,9.59,0,0,0-2.37.42,5.16,5.16,0,0,0-1.47.62.89.89,0,0,0-.44.74c0,.32.21.56.64.73a.65.65,0,0,1,.35.28,1.34,1.34,0,0,1,.1.59,20.44,20.44,0,0,1-.15,3A.9.9,0,0,1,88.9,22.32Z"/><path class="cls-1" d="M103.89,24.53l.61,0c.48,0,.9,0,1.28,0h.65l1.91,0,.94,0,1.1,0a6.92,6.92,0,0,0,2.3-.36,5.47,5.47,0,0,0,2.88-2.12,6.14,6.14,0,0,0,.8-1.77,7.16,7.16,0,0,0,.3-2.05,7.15,7.15,0,0,0-.8-3.48,5.08,5.08,0,0,0-2.69-2.37,9.16,9.16,0,0,0-3.25-.47l-.86,0c-1.09.05-2,.08-2.91.09l-1.1,0h-.6a2.35,2.35,0,0,0-1.19.26.77.77,0,0,0-.43.69.83.83,0,0,0,.62.79.89.89,0,0,1,.56.42,2.89,2.89,0,0,1,.12,1c0,1.28,0,2.58-.06,3.88s-.08,2.18-.13,2.63a2.05,2.05,0,0,1-.21.77.73.73,0,0,1-.48.3,1.37,1.37,0,0,0-.55.28.75.75,0,0,0-.16.5.88.88,0,0,0,.37.73A1.7,1.7,0,0,0,103.89,24.53Zm4.43-9.85a.78.78,0,0,1,.16-.59.84.84,0,0,1,.61-.17,2.37,2.37,0,0,1,2.29,1.34,7.87,7.87,0,0,1,.61,3.42q0,4-2.63,4a1.13,1.13,0,0,1-.81-.24,1.1,1.1,0,0,1-.23-.8Z"/><path class="cls-1" d="M66,0C29,0,0,8.76,0,20s29,20,66,20S132,31.13,132,20,103,0,66,0Zm0,2c34.09,0,64,8.39,64,18s-29.91,18-64,18S2,29.51,2,20,31.9,2,66,2Z"/></g></g></svg>